<svg width="700" height="700" viewBox="0 0 700 700" fill="none" xmlns="http://www.w3.org/2000/svg">
<rect width="700" height="700" fill="white"/>
<path d="M127.78 334.25C131.472 337.998 135.958 339.872 141.239 339.872C144.589 339.872 147.94 339.093 151.29 337.537C154.754 335.922 157.338 333.876 159.041 331.396L168.326 337.796C165.657 341.832 161.767 345.089 156.656 347.569C151.602 350.048 146.463 351.287 141.239 351.287C132.891 351.287 125.764 348.289 119.859 342.293C113.953 336.297 111 329.09 111 320.673C111 312.197 113.953 304.962 119.859 298.966C125.764 292.97 132.891 289.971 141.239 289.971C146.52 289.971 151.46 291.326 156.06 294.036C160.489 296.631 164.067 300.148 166.793 304.587L157.508 310.9C153.76 304.558 148.337 301.387 141.239 301.387C135.958 301.387 131.472 303.261 127.78 307.008C124.089 310.814 122.244 315.368 122.244 320.673C122.244 325.977 124.089 330.503 127.78 334.25Z" fill="black"/>
<path d="M194.306 351.287H183.062V262.989H194.306V296.804C199.871 292.249 205.947 289.971 212.534 289.971C220.825 289.971 227.838 292.97 233.574 298.966C239.195 304.904 242.006 312.14 242.006 320.673V351.287H230.763V320.673C230.763 315.311 229.031 310.756 225.567 307.008C222.046 303.261 217.702 301.387 212.534 301.387C207.367 301.387 203.022 303.261 199.502 307.008C196.038 310.756 194.306 315.311 194.306 320.673V351.287Z" fill="black"/>
<path d="M259.724 351.287V289.971H270.967V351.287H259.724ZM259.724 280.113V269.043H270.967V280.113H259.724Z" fill="black"/>
<path d="M305.976 334.25C309.667 337.998 314.154 339.872 319.435 339.872C322.785 339.872 326.135 339.093 329.486 337.537C332.95 335.922 335.534 333.876 337.237 331.396L346.522 337.796C343.853 341.832 339.963 345.089 334.852 347.569C329.798 350.048 324.659 351.287 319.435 351.287C311.087 351.287 303.96 348.289 298.055 342.293C292.149 336.297 289.196 329.09 289.196 320.673C289.196 312.197 292.149 304.962 298.055 298.966C303.96 292.97 311.087 289.971 319.435 289.971C324.716 289.971 329.656 291.326 334.256 294.036C338.685 296.631 342.263 300.148 344.989 304.587L335.704 310.9C331.956 304.558 326.533 301.387 319.435 301.387C314.154 301.387 309.667 303.261 305.976 307.008C302.285 310.814 300.44 315.368 300.44 320.673C300.44 325.977 302.285 330.503 305.976 334.25Z" fill="black"/>
<path d="M403.166 298.101L380.934 317.213L410.918 343.158L402.996 351.287L372.502 324.824V351.287H361.258V261H372.502V309.689L395.245 289.971L403.166 298.101Z" fill="black"/>
<path d="M305.863 420.963C309.554 424.711 314.04 426.584 319.321 426.584C322.672 426.584 326.022 425.806 329.372 424.249C332.836 422.635 335.42 420.588 337.124 418.109L346.408 424.509C343.739 428.545 339.849 431.802 334.739 434.281C329.685 436.76 324.545 438 319.321 438C310.974 438 303.847 435.002 297.941 429.006C292.035 423.01 289.082 415.803 289.082 407.385C289.082 398.91 292.035 391.674 297.941 385.678C303.847 379.682 310.974 376.684 319.321 376.684C324.602 376.684 329.543 378.039 334.142 380.749C338.572 383.343 342.149 386.86 344.875 391.3L335.59 397.613C331.843 391.271 326.419 388.1 319.321 388.1C314.04 388.1 309.554 389.974 305.863 393.721C302.172 397.526 300.326 402.081 300.326 407.385C300.326 412.69 302.172 417.215 305.863 420.963Z" fill="black"/>
<path d="M372.388 438H361.144V349.702H372.388V383.516C377.953 378.962 384.029 376.684 390.617 376.684C398.907 376.684 405.92 379.682 411.656 385.678C417.278 391.617 420.089 398.852 420.089 407.385V438H408.845V407.385C408.845 402.023 407.113 397.469 403.649 393.721C400.128 389.974 395.784 388.1 390.617 388.1C385.449 388.1 381.105 389.974 377.584 393.721C374.12 397.469 372.388 402.023 372.388 407.385V438Z" fill="black"/>
<path d="M437.806 438V376.684H449.05V438H437.806ZM437.806 366.825V355.756H449.05V366.825H437.806Z" fill="black"/>
<path d="M484.059 420.963C487.75 424.711 492.236 426.584 497.517 426.584C500.867 426.584 504.218 425.806 507.568 424.249C511.032 422.635 513.616 420.588 515.32 418.109L524.604 424.509C521.935 428.545 518.045 431.802 512.935 434.281C507.881 436.76 502.741 438 497.517 438C489.169 438 482.043 435.002 476.137 429.006C470.231 423.01 467.278 415.803 467.278 407.385C467.278 398.91 470.231 391.674 476.137 385.678C482.043 379.682 489.169 376.684 497.517 376.684C502.798 376.684 507.739 378.039 512.338 380.749C516.768 383.343 520.345 386.86 523.071 391.3L513.786 397.613C510.038 391.271 504.615 388.1 497.517 388.1C492.236 388.1 487.75 389.974 484.059 393.721C480.368 397.526 478.522 402.081 478.522 407.385C478.522 412.69 480.368 417.215 484.059 420.963Z" fill="black"/>
<path d="M581.249 384.814L559.017 403.926L589 429.871L581.078 438L550.584 411.536V438H539.34V347.713H550.584V396.402L573.327 376.684L581.249 384.814Z" fill="black"/>
</svg>
