<svg width="108" height="40" viewBox="0 0 108 40" fill="none" xmlns="http://www.w3.org/2000/svg">
<path d="M3.79139 16.5537C4.62536 17.4007 5.63897 17.8241 6.8322 17.8241C7.58919 17.8241 8.34618 17.6482 9.10318 17.2964C9.88583 16.9316 10.4696 16.4691 10.8545 15.9088L12.9523 17.355C12.3493 18.2671 11.4704 19.0033 10.3157 19.5635C9.17375 20.1238 8.01259 20.4039 6.8322 20.4039C4.94612 20.4039 3.33591 19.7264 2.00154 18.3713C0.667181 17.0163 0 15.3876 0 13.4853C0 11.57 0.667181 9.93485 2.00154 8.5798C3.33591 7.22476 4.94612 6.54723 6.8322 6.54723C8.02542 6.54723 9.14167 6.85342 10.1809 7.4658C11.1817 8.05212 11.99 8.8469 12.6059 9.85016L10.5081 11.2769C9.6613 9.84365 8.436 9.12704 6.8322 9.12704C5.63897 9.12704 4.62536 9.55049 3.79139 10.3974C2.95741 11.2573 2.54042 12.2866 2.54042 13.4853C2.54042 14.684 2.95741 15.7068 3.79139 16.5537Z" fill="black"/>
<path d="M18.8222 20.4039H16.2818V0.449511H18.8222V8.0912C20.0796 7.06189 21.4525 6.54723 22.9408 6.54723C24.814 6.54723 26.3986 7.22476 27.6944 8.5798C28.9647 9.92182 29.5998 11.557 29.5998 13.4853V20.4039H27.0593V13.4853C27.0593 12.2736 26.668 11.2443 25.8854 10.3974C25.0899 9.55049 24.1083 9.12704 22.9408 9.12704C21.7732 9.12704 20.7917 9.55049 19.9962 10.3974C19.2135 11.2443 18.8222 12.2736 18.8222 13.4853V20.4039Z" fill="black"/>
<path d="M33.6029 20.4039V6.54723H36.1433V20.4039H33.6029ZM33.6029 4.31922V1.81759H36.1433V4.31922H33.6029Z" fill="black"/>
<path d="M44.0532 16.5537C44.8872 17.4007 45.9008 17.8241 47.094 17.8241C47.851 17.8241 48.608 17.6482 49.365 17.2964C50.1477 16.9316 50.7315 16.4691 51.1164 15.9088L53.2141 17.355C52.6111 18.2671 51.7322 19.0033 50.5775 19.5635C49.4356 20.1238 48.2744 20.4039 47.094 20.4039C45.208 20.4039 43.5977 19.7264 42.2634 18.3713C40.929 17.0163 40.2618 15.3876 40.2618 13.4853C40.2618 11.57 40.929 9.93485 42.2634 8.5798C43.5977 7.22476 45.208 6.54723 47.094 6.54723C48.2873 6.54723 49.4035 6.85342 50.4428 7.4658C51.4435 8.05212 52.2519 8.8469 52.8677 9.85016L50.7699 11.2769C49.9231 9.84365 48.6978 9.12704 47.094 9.12704C45.9008 9.12704 44.8872 9.55049 44.0532 10.3974C43.2192 11.2573 42.8023 12.2866 42.8023 13.4853C42.8023 14.684 43.2192 15.7068 44.0532 16.5537Z" fill="black"/>
<path d="M66.0125 8.38436L60.9894 12.7036L67.7638 18.5668L65.974 20.4039L59.0841 14.4235V20.4039H56.5436V0H59.0841V11.0033L64.2226 6.54723L66.0125 8.38436Z" fill="black"/>
<path d="M44.0276 36.1498C44.8615 36.9967 45.8751 37.4202 47.0684 37.4202C47.8254 37.4202 48.5824 37.2443 49.3394 36.8925C50.122 36.5277 50.7058 36.0651 51.0907 35.5049L53.1885 36.9511C52.5855 37.8632 51.7066 38.5993 50.5518 39.1596C49.4099 39.7199 48.2488 40 47.0684 40C45.1823 40 43.5721 39.3225 42.2377 37.9674C40.9034 36.6124 40.2362 34.9837 40.2362 33.0814C40.2362 31.1661 40.9034 29.5309 42.2377 28.1759C43.5721 26.8208 45.1823 26.1433 47.0684 26.1433C48.2616 26.1433 49.3778 26.4495 50.4171 27.0619C51.4179 27.6482 52.2262 28.443 52.8421 29.4463L50.7443 30.873C49.8975 29.4397 48.6722 28.7231 47.0684 28.7231C45.8751 28.7231 44.8615 29.1466 44.0276 29.9935C43.1936 30.8534 42.7766 31.8827 42.7766 33.0814C42.7766 34.2801 43.1936 35.3029 44.0276 36.1498Z" fill="black"/>
<path d="M59.0584 40H56.518V20.0456H59.0584V27.6873C60.3158 26.658 61.6886 26.1433 63.177 26.1433C65.0502 26.1433 66.6348 26.8208 67.9306 28.1759C69.2008 29.5179 69.8359 31.1531 69.8359 33.0814V40H67.2955V33.0814C67.2955 31.8697 66.9042 30.8404 66.1215 29.9935C65.326 29.1466 64.3445 28.7231 63.177 28.7231C62.0094 28.7231 61.0279 29.1466 60.2324 29.9935C59.4497 30.8404 59.0584 31.8697 59.0584 33.0814V40Z" fill="black"/>
<path d="M73.839 40V26.1433H76.3795V40H73.839ZM73.839 23.9153V21.4137H76.3795V23.9153H73.839Z" fill="black"/>
<path d="M84.2894 36.1498C85.1234 36.9967 86.137 37.4202 87.3302 37.4202C88.0872 37.4202 88.8442 37.2443 89.6012 36.8925C90.3839 36.5277 90.9676 36.0651 91.3525 35.5049L93.4503 36.9511C92.8473 37.8632 91.9684 38.5993 90.8137 39.1596C89.6718 39.7199 88.5106 40 87.3302 40C85.4441 40 83.8339 39.3225 82.4996 37.9674C81.1652 36.6124 80.498 34.9837 80.498 33.0814C80.498 31.1661 81.1652 29.5309 82.4996 28.1759C83.8339 26.8208 85.4441 26.1433 87.3302 26.1433C88.5234 26.1433 89.6397 26.4495 90.6789 27.0619C91.6797 27.6482 92.488 28.443 93.1039 29.4463L91.0061 30.873C90.1593 29.4397 88.934 28.7231 87.3302 28.7231C86.137 28.7231 85.1234 29.1466 84.2894 29.9935C83.4554 30.8534 83.0384 31.8827 83.0384 33.0814C83.0384 34.2801 83.4554 35.3029 84.2894 36.1498Z" fill="black"/>
<path d="M106.249 27.9805L101.226 32.2997L108 38.1629L106.21 40L99.3202 34.0195V40H96.7798V19.5961H99.3202V30.5993L104.459 26.1433L106.249 27.9805Z" fill="black"/>
</svg>
