<svg width="120" height="45" viewBox="0 0 120 45" fill="none" xmlns="http://www.w3.org/2000/svg">
<g id="&#235;&#161;&#156;&#234;&#179;&#160;">
<g id="&#235;&#161;&#156;&#234;&#179;&#160;_2">
<path d="M4.21265 19.1536C5.13929 20.0852 6.26552 20.551 7.59133 20.551C8.43243 20.551 9.27354 20.3575 10.1146 19.9705C10.9843 19.5692 11.6329 19.0604 12.0606 18.4441L14.3914 20.035C13.7214 21.0383 12.7449 21.848 11.4618 22.4643C10.1931 23.0806 8.90288 23.3888 7.59133 23.3888C5.49569 23.3888 3.70656 22.6435 2.22394 21.1529C0.741313 19.6624 0 17.8708 0 15.7783C0 13.6715 0.741313 11.8728 2.22394 10.3822C3.70656 8.89169 5.49569 8.14641 7.59133 8.14641C8.91714 8.14641 10.1574 8.48322 11.3121 9.15684C12.4241 9.80179 13.3222 10.6761 14.0065 11.7796L11.6757 13.349C10.7348 11.7725 9.37333 10.9842 7.59133 10.9842C6.26552 10.9842 5.13929 11.45 4.21265 12.3816C3.28601 13.3275 2.82269 14.4598 2.82269 15.7783C2.82269 17.0969 3.28601 18.222 4.21265 19.1536Z" fill="black"/>
<path d="M20.9136 23.3888H18.0909V1.43892H20.9136V9.84478C22.3107 8.71254 23.8361 8.14641 25.4898 8.14641C27.5711 8.14641 29.3318 8.89169 30.7716 10.3822C32.183 11.8585 32.8886 13.6572 32.8886 15.7783V23.3888H30.0659V15.7783C30.0659 14.4454 29.6311 13.3132 28.7615 12.3816C27.8776 11.45 26.7871 10.9842 25.4898 10.9842C24.1925 10.9842 23.1019 11.45 22.218 12.3816C21.3484 13.3132 20.9136 14.4454 20.9136 15.7783V23.3888Z" fill="black"/>
<path d="M37.3365 23.3888V8.14641H40.1592V23.3888H37.3365ZM37.3365 5.6956V2.94381H40.1592V5.6956H37.3365Z" fill="black"/>
<path d="M48.948 19.1536C49.8747 20.0852 51.0009 20.551 52.3267 20.551C53.1678 20.551 54.0089 20.3575 54.85 19.9705C55.7196 19.5692 56.3683 19.0604 56.796 18.4441L59.1268 20.035C58.4568 21.0383 57.4803 21.848 56.1972 22.4643C54.9284 23.0806 53.6383 23.3888 52.3267 23.3888C50.2311 23.3888 48.4419 22.6435 46.9593 21.1529C45.4767 19.6624 44.7354 17.8708 44.7354 15.7783C44.7354 13.6715 45.4767 11.8728 46.9593 10.3822C48.4419 8.89169 50.2311 8.14641 52.3267 8.14641C53.6525 8.14641 54.8928 8.48322 56.0475 9.15684C57.1595 9.80179 58.0576 10.6761 58.7419 11.7796L56.411 13.349C55.4702 11.7725 54.1087 10.9842 52.3267 10.9842C51.0009 10.9842 49.8747 11.45 48.948 12.3816C48.0214 13.3275 47.5581 14.4598 47.5581 15.7783C47.5581 17.0969 48.0214 18.222 48.948 19.1536Z" fill="black"/>
<path d="M73.3472 10.1673L67.766 14.9184L75.2931 21.3679L73.3044 23.3888L65.6489 16.8103V23.3888H62.8263V0.944458H65.6489V13.048L71.3585 8.14641L73.3472 10.1673Z" fill="black"/>
<path d="M48.9195 40.7093C49.8462 41.6409 50.9724 42.1067 52.2982 42.1067C53.1393 42.1067 53.9804 41.9132 54.8215 41.5262C55.6911 41.1249 56.3398 40.6161 56.7675 39.9998L59.0983 41.5907C58.4283 42.594 57.4517 43.4037 56.1687 44.02C54.8999 44.6363 53.6097 44.9445 52.2982 44.9445C50.2026 44.9445 48.4134 44.1992 46.9308 42.7086C45.4482 41.2181 44.7069 39.4265 44.7069 37.334C44.7069 35.2272 45.4482 33.4285 46.9308 31.9379C48.4134 30.4474 50.2026 29.7021 52.2982 29.7021C53.624 29.7021 54.8643 30.0389 56.019 30.7125C57.131 31.3575 58.0291 32.2318 58.7134 33.3353L56.3825 34.9047C55.4416 33.3282 54.0802 32.5399 52.2982 32.5399C50.9724 32.5399 49.8462 33.0057 48.9195 33.9373C47.9929 34.8832 47.5296 36.0155 47.5296 37.334C47.5296 38.6526 47.9929 39.7777 48.9195 40.7093Z" fill="black"/>
<path d="M65.6204 44.9445H62.7977V22.9946H65.6204V31.4005C67.0175 30.2682 68.5429 29.7021 70.1966 29.7021C72.278 29.7021 74.0386 30.4474 75.4785 31.9379C76.8898 33.4142 77.5955 35.2129 77.5955 37.334V44.9445H74.7728V37.334C74.7728 36.0011 74.338 34.8689 73.4684 33.9373C72.5845 33.0057 71.4939 32.5399 70.1966 32.5399C68.8993 32.5399 67.8087 33.0057 66.9249 33.9373C66.0552 34.8689 65.6204 36.0011 65.6204 37.334V44.9445Z" fill="black"/>
<path d="M82.0434 44.9445V29.7021H84.8661V44.9445H82.0434ZM82.0434 27.2513V24.4995H84.8661V27.2513H82.0434Z" fill="black"/>
<path d="M93.6549 40.7093C94.5815 41.6409 95.7078 42.1067 97.0336 42.1067C97.8747 42.1067 98.7158 41.9132 99.5569 41.5262C100.426 41.1249 101.075 40.6161 101.503 39.9998L103.834 41.5907C103.164 42.594 102.187 43.4037 100.904 44.02C99.6353 44.6363 98.3451 44.9445 97.0336 44.9445C94.9379 44.9445 93.1488 44.1992 91.6662 42.7086C90.1836 41.2181 89.4422 39.4265 89.4422 37.334C89.4422 35.2272 90.1836 33.4285 91.6662 31.9379C93.1488 30.4474 94.9379 29.7021 97.0336 29.7021C98.3594 29.7021 99.5996 30.0389 100.754 30.7125C101.866 31.3575 102.764 32.2318 103.449 33.3353L101.118 34.9047C100.177 33.3282 98.8156 32.5399 97.0336 32.5399C95.7078 32.5399 94.5815 33.0057 93.6549 33.9373C92.7282 34.8832 92.2649 36.0155 92.2649 37.334C92.2649 38.6526 92.7282 39.7777 93.6549 40.7093Z" fill="black"/>
<path d="M118.054 31.723L112.473 36.4741L120 42.9236L118.011 44.9445L110.356 38.366V44.9445H107.533V22.5002H110.356V34.6037L116.065 29.7021L118.054 31.723Z" fill="black"/>
</g>
</g>
</svg>
