<svg width="36" height="36" viewBox="0 0 36 36" fill="none" xmlns="http://www.w3.org/2000/svg">
<rect x="0.5" y="0.5" width="35" height="35" rx="17.5" fill="#F6F6F6" stroke="#DBDBDB"/>
<path d="M23.7596 24.527V22.4842C23.7596 21.4006 23.4514 20.3613 22.9029 19.5951C22.3543 18.8289 21.6103 18.3984 20.8346 18.3984H14.9846C14.2088 18.3984 13.4648 18.8289 12.9163 19.5951C12.3677 20.3613 12.0596 21.4006 12.0596 22.4842V24.527" fill="#DBDBDB"/>
<path d="M17.9094 17.1908C19.5248 17.1908 20.8344 15.8813 20.8344 14.2658C20.8344 12.6504 19.5248 11.3408 17.9094 11.3408C16.2939 11.3408 14.9844 12.6504 14.9844 14.2658C14.9844 15.8813 16.2939 17.1908 17.9094 17.1908Z" fill="#DBDBDB"/>
</svg>
