<svg width="24" height="24" viewBox="0 0 24 24" fill="none" xmlns="http://www.w3.org/2000/svg">
<path fill-rule="evenodd" clip-rule="evenodd" d="M9.94888 3.25H14.0511C15.4219 3.24998 16.5209 3.24997 17.384 3.35688C18.2735 3.46706 19.026 3.70189 19.6295 4.25794C20.2418 4.82205 20.5086 5.53912 20.6323 6.38675C20.7501 7.19362 20.75 8.21619 20.75 9.46954V15.8866C20.75 17.0643 20.7501 18.0398 20.6352 18.764C20.5168 19.5106 20.2372 20.2418 19.4622 20.5888C18.712 20.9247 17.9621 20.6885 17.2753 20.3255C16.5953 19.9661 15.7692 19.368 14.7568 18.6351L14.0315 18.1101C13.4241 17.6705 13.0198 17.3792 12.6835 17.1907C12.3652 17.0123 12.1724 16.9644 12 16.9644C11.8276 16.9644 11.6348 17.0123 11.3165 17.1907C10.9802 17.3792 10.5759 17.6705 9.9685 18.1101L9.24322 18.6351C8.2308 19.368 7.4047 19.9661 6.72474 20.3255C6.03791 20.6885 5.28797 20.9247 4.53779 20.5888C3.7628 20.2418 3.48323 19.5106 3.3648 18.764C3.24992 18.0398 3.24996 17.0643 3.25 15.8865L3.25 9.46956C3.24997 8.21621 3.24995 7.19362 3.3677 6.38675C3.4914 5.53912 3.75821 4.82205 4.3705 4.25794C4.97405 3.70189 5.72649 3.46706 6.61599 3.35688C7.4791 3.24997 8.57807 3.24998 9.94888 3.25ZM6.80038 4.8455C6.05601 4.93771 5.662 5.10764 5.38686 5.36112C5.12048 5.60654 4.94795 5.94569 4.85198 6.60335C4.75187 7.28932 4.75 8.20193 4.75 9.52781V15.8181C4.75 17.0818 4.7523 17.9366 4.84628 18.529C4.93892 19.113 5.0815 19.1888 5.15081 19.2198C5.24492 19.262 5.4446 19.3054 6.02381 18.9993C6.59871 18.6954 7.33905 18.1618 8.41369 17.3839L9.12331 16.8702C9.6872 16.462 10.1619 16.1183 10.5832 15.8822C11.031 15.6312 11.4807 15.4644 12 15.4644C12.5193 15.4644 12.969 15.6312 13.4168 15.8822C13.8381 16.1183 14.3128 16.462 14.8767 16.8702L15.5863 17.3839C16.661 18.1618 17.4013 18.6954 17.9762 18.9993C18.5554 19.3054 18.7551 19.262 18.8492 19.2198C18.9185 19.1888 19.0611 19.113 19.1537 18.529C19.2477 17.9366 19.25 17.0818 19.25 15.8181V9.52781C19.25 8.20193 19.2481 7.28932 19.148 6.60335C19.0521 5.94569 18.8795 5.60654 18.6131 5.36112C18.338 5.10764 17.944 4.93771 17.1996 4.8455C16.4395 4.75136 15.4338 4.75 14 4.75H10C8.56622 4.75 7.56046 4.75136 6.80038 4.8455Z" fill="#A8A8A8"/>
</svg>
