<svg width="16" height="16" viewBox="0 0 16 16" fill="none" xmlns="http://www.w3.org/2000/svg">
<path fill-rule="evenodd" clip-rule="evenodd" d="M6.4256 2.46924C4.16532 2.46924 2.33301 4.40934 2.33301 6.80257C2.33301 9.16455 4.11778 11.0852 6.33727 11.1349L7.73691 13.3809C7.86133 13.5806 8.13801 13.5806 8.26244 13.3809L9.66208 11.1349C11.8816 11.0852 13.6663 9.16455 13.6663 6.80257C13.6663 4.40934 11.834 2.46924 9.57375 2.46924H6.4256Z" fill="white"/>
<path fill-rule="evenodd" clip-rule="evenodd" d="M6.85267 10.1462L7.99967 11.9868L9.14668 10.1462L9.64209 10.1351C11.349 10.0969 12.7219 8.61935 12.7219 6.80257C12.7219 4.96162 11.3124 3.46924 9.57375 3.46924H6.4256C4.68693 3.46924 3.27745 4.96162 3.27745 6.80257C3.27745 8.61936 4.65037 10.0969 6.35726 10.1351L6.85267 10.1462ZM2.33301 6.80257C2.33301 4.40934 4.16532 2.46924 6.4256 2.46924H9.57375C11.834 2.46924 13.6663 4.40934 13.6663 6.80257C13.6663 9.16455 11.8816 11.0852 9.66208 11.1349L8.26244 13.3809C8.13801 13.5806 7.86133 13.5806 7.73691 13.3809L6.33727 11.1349C4.11778 11.0852 2.33301 9.16455 2.33301 6.80257Z" fill="#A8A8A8"/>
</svg>
