<svg width="20" height="20" viewBox="0 0 20 20" fill="none" xmlns="http://www.w3.org/2000/svg">
<path fill-rule="evenodd" clip-rule="evenodd" d="M10.0007 15.833C13.2223 15.833 15.834 13.2213 15.834 9.99967C15.834 6.77801 13.2223 4.16634 10.0007 4.16634C6.77899 4.16634 4.16732 6.77801 4.16732 9.99967C4.16732 13.2213 6.77899 15.833 10.0007 15.833ZM10.0007 16.6663C13.6825 16.6663 16.6673 13.6816 16.6673 9.99967C16.6673 6.31778 13.6825 3.33301 10.0007 3.33301C6.31875 3.33301 3.33398 6.31778 3.33398 9.99967C3.33398 13.6816 6.31875 16.6663 10.0007 16.6663Z" fill="#6E4D3F"/>
<path fill-rule="evenodd" clip-rule="evenodd" d="M10.9875 14.4211C11.3966 13.3302 11.6667 11.7672 11.6667 9.99967C11.6667 8.2322 11.3966 6.66917 10.9875 5.57823C10.7818 5.02969 10.557 4.64366 10.3496 4.40975C10.1413 4.17486 10.0213 4.16634 10 4.16634C9.97872 4.16634 9.85869 4.17486 9.65044 4.40975C9.44305 4.64366 9.21821 5.02969 9.01251 5.57823C8.60341 6.66917 8.33333 8.2322 8.33333 9.99967C8.33333 11.7672 8.60341 13.3302 9.01251 14.4211C9.21821 14.9697 9.44305 15.3557 9.65044 15.5896C9.85869 15.8245 9.97872 15.833 10 15.833C10.0213 15.833 10.1413 15.8245 10.3496 15.5896C10.557 15.3557 10.7818 14.9697 10.9875 14.4211ZM10 16.6663C11.3807 16.6663 12.5 13.6816 12.5 9.99967C12.5 6.31778 11.3807 3.33301 10 3.33301C8.61929 3.33301 7.5 6.31778 7.5 9.99967C7.5 13.6816 8.61929 16.6663 10 16.6663Z" fill="#6E4D3F"/>
<path fill-rule="evenodd" clip-rule="evenodd" d="M3.33398 9.99967C3.33398 9.76956 3.52053 9.58301 3.75065 9.58301H16.2507C16.4808 9.58301 16.6673 9.76956 16.6673 9.99967C16.6673 10.2298 16.4808 10.4163 16.2507 10.4163H3.75065C3.52053 10.4163 3.33398 10.2298 3.33398 9.99967Z" fill="#6E4D3F"/>
</svg>
