<svg width="24" height="24" viewBox="0 0 24 24" fill="none" xmlns="http://www.w3.org/2000/svg">
<path fill-rule="evenodd" clip-rule="evenodd" d="M12 19C15.866 19 19 15.866 19 12C19 8.13401 15.866 5 12 5C8.13401 5 5 8.13401 5 12C5 15.866 8.13401 19 12 19ZM12 20C16.4183 20 20 16.4183 20 12C20 7.58172 16.4183 4 12 4C7.58172 4 4 7.58172 4 12C4 16.4183 7.58172 20 12 20Z" fill="#A8A8A8"/>
<path fill-rule="evenodd" clip-rule="evenodd" d="M13.185 17.3057C13.6759 15.9966 14 14.121 14 12C14 9.87903 13.6759 8.0034 13.185 6.69427C12.9381 6.03602 12.6683 5.57279 12.4195 5.29209C12.1696 5.01022 12.0255 5 12 5C11.9745 5 11.8304 5.01022 11.5805 5.29209C11.3317 5.57279 11.0619 6.03602 10.815 6.69427C10.3241 8.0034 10 9.87903 10 12C10 14.121 10.3241 15.9966 10.815 17.3057C11.0619 17.964 11.3317 18.4272 11.5805 18.7079C11.8304 18.9898 11.9745 19 12 19C12.0255 19 12.1696 18.9898 12.4195 18.7079C12.6683 18.4272 12.9381 17.964 13.185 17.3057ZM12 20C13.6569 20 15 16.4183 15 12C15 7.58172 13.6569 4 12 4C10.3431 4 9 7.58172 9 12C9 16.4183 10.3431 20 12 20Z" fill="#A8A8A8"/>
<path fill-rule="evenodd" clip-rule="evenodd" d="M4 12C4 11.7239 4.22386 11.5 4.5 11.5H19.5C19.7761 11.5 20 11.7239 20 12C20 12.2761 19.7761 12.5 19.5 12.5H4.5C4.22386 12.5 4 12.2761 4 12Z" fill="#A8A8A8"/>
</svg>
