<svg width="24" height="24" viewBox="0 0 24 24" fill="none" xmlns="http://www.w3.org/2000/svg">
<path fill-rule="evenodd" clip-rule="evenodd" d="M11.0742 19.8981C11.0742 19.4839 11.4888 19.1481 12.0003 19.1481L19.0742 19.1481C19.5856 19.1481 20.0002 19.4839 20.0002 19.8981C20.0002 20.3123 19.5856 20.6481 19.0742 20.6481L12.0003 20.6481C11.4888 20.6481 11.0742 20.3123 11.0742 19.8981Z" fill="#6E4D3F"/>
<path d="M19.2585 4.74125C18.7803 4.26646 18.1337 4 17.4597 4C16.7857 4 16.1391 4.26646 15.6609 4.74125L4.66945 15.7288C4.56635 15.8353 4.49854 15.9708 4.47524 16.1171L4.0082 19.2003C3.99287 19.2991 3.99908 19.4 4.02642 19.4962C4.05375 19.5923 4.10155 19.6814 4.16655 19.7574C4.23155 19.8333 4.31222 19.8943 4.40301 19.9362C4.4938 19.9781 4.59258 19.9998 4.69257 20H4.79892L7.87857 19.5378C8.02492 19.5145 8.16055 19.4467 8.267 19.3436L19.2585 8.33753C19.7334 7.85952 20 7.21312 20 6.53939C20 5.86565 19.7334 5.21926 19.2585 4.74125ZM7.44853 18.1834L5.52028 18.4746L5.8116 16.547L14.8378 7.5286L16.4702 9.16033L7.44853 18.1834ZM18.2782 7.35757L17.1268 8.50856L15.4898 6.87221L16.6412 5.72121C16.8583 5.50422 17.1527 5.38231 17.4597 5.38231C17.7667 5.38231 18.0611 5.50422 18.2782 5.72121C18.4952 5.93821 18.6172 6.23251 18.6172 6.53939C18.6172 6.84626 18.4952 7.14057 18.2782 7.35757Z" fill="#6E4D3F"/>
</svg>
