<svg width="19" height="15" viewBox="0 0 19 15" fill="none" xmlns="http://www.w3.org/2000/svg">
<rect width="19" height="15" fill="#B3B3B3"/>
<g id="&#236;&#187;&#164;&#235;&#174;&#164;&#235;&#139;&#136;&#237;&#139;&#176; &#234;&#178;&#140;&#236;&#139;&#156;&#234;&#184;&#128; &#236;&#131;&#129;&#236;&#132;&#184;">
<path d="M-775 -1990C-775 -1991.1 -774.105 -1992 -773 -1992H8385C8386.1 -1992 8387 -1991.1 8387 -1990V2576C8387 2577.1 8386.1 2578 8385 2578H-773C-774.105 2578 -775 2577.1 -775 2576V-1990Z" fill="#404040"/>
<path d="M-773 -1991H8385V-1993H-773V-1991ZM8386 -1990V2576H8388V-1990H8386ZM8385 2577H-773V2579H8385V2577ZM-774 2576V-1990H-776V2576H-774ZM-773 2577C-773.552 2577 -774 2576.55 -774 2576H-776C-776 2577.66 -774.657 2579 -773 2579V2577ZM8386 2576C8386 2576.55 8385.55 2577 8385 2577V2579C8386.66 2579 8388 2577.66 8388 2576H8386ZM8385 -1991C8385.55 -1991 8386 -1990.55 8386 -1990H8388C8388 -1991.66 8386.66 -1993 8385 -1993V-1991ZM-773 -1993C-774.657 -1993 -776 -1991.66 -776 -1990H-774C-774 -1990.55 -773.552 -1991 -773 -1991V-1993Z" fill="black" fill-opacity="0.1"/>
<g id="&#234;&#178;&#140;&#236;&#139;&#156;&#234;&#184;&#128; &#236;&#131;&#129;&#236;&#132;&#184;">
<rect width="1920" height="2691" transform="translate(-459 -1561)" fill="#FEFDFD"/>
<g id="&#234;&#178;&#140;&#236;&#139;&#156;&#234;&#184;&#128; &#236;&#187;&#168;&#237;&#133;&#144;&#236;&#184;&#160;">
<g id="&#235;&#140;&#147;&#234;&#184;&#128;">
<g id="&#235;&#140;&#147;&#234;&#184;&#128; &#235;&#170;&#169;&#235;&#161;&#157;">
<g id="&#235;&#140;&#147;&#234;&#184;&#128;&#236;&#176;&#189;">
<mask id="path-3-inside-1_931_46297" fill="white">
<path d="M1 -19H1001V115H1V-19Z"/>
</mask>
<path d="M1001 114H1V116H1001V114Z" fill="#DBDBDB" mask="url(#path-3-inside-1_931_46297)"/>
<g id="&#235;&#139;&#181;&#234;&#184;&#128;">
<path id="Vector 10" d="M17 9L17.7071 8.29289L18.4142 9L17.7071 9.70711L17 9ZM0 1C-4.82823e-08 0.447717 0.447716 1.44705e-06 1 1.39876e-06C1.55229 1.35048e-06 2 0.447717 2 1L0 1ZM12.7071 3.29289L17.7071 8.29289L16.2929 9.70711L11.2929 4.70711L12.7071 3.29289ZM17.7071 9.70711L12.7071 14.7071L11.2929 13.2929L16.2929 8.29289L17.7071 9.70711ZM17 10L7 10L7 8L17 8L17 10ZM1.74846e-07 3L0 1L2 1L2 3L1.74846e-07 3ZM7 10C3.13401 10 5.12821e-07 6.86599 1.74846e-07 3L2 3C2 5.76142 4.23858 8 7 8L7 10Z" fill="#A8A8A8"/>
</g>
</g>
</g>
</g>
</g>
</g>
</g>
</svg>
