<svg width="16" height="16" viewBox="0 0 16 16" fill="none" xmlns="http://www.w3.org/2000/svg">
<g clip-path="url(#clip0_1252_1483)">
<path fill-rule="evenodd" clip-rule="evenodd" d="M3.07037 8C3.12502 8.09443 3.19746 8.21478 3.28721 8.35374C3.51772 8.71066 3.85908 9.1853 4.30227 9.65803C5.19776 10.6132 6.44975 11.5 8 11.5C9.55025 11.5 10.8022 10.6132 11.6977 9.65803C12.1409 9.1853 12.4823 8.71066 12.7128 8.35374C12.8025 8.21478 12.875 8.09443 12.9296 8C12.875 7.90557 12.8025 7.78522 12.7128 7.64626C12.4823 7.28934 12.1409 6.8147 11.6977 6.34197C10.8022 5.38678 9.55025 4.5 8 4.5C6.44975 4.5 5.19776 5.38678 4.30227 6.34197C3.85908 6.8147 3.51772 7.28934 3.28721 7.64626C3.19746 7.78522 3.12502 7.90557 3.07037 8ZM13.5 8C13.9472 7.77639 13.947 7.77604 13.947 7.77604L13.9462 7.77443L13.9445 7.77102L13.9388 7.75991C13.9341 7.75064 13.9273 7.73766 13.9186 7.72122C13.9012 7.68835 13.876 7.64162 13.843 7.58299C13.7771 7.46582 13.6801 7.30076 13.5528 7.10374C13.299 6.71066 12.9216 6.1853 12.4273 5.65803C11.4478 4.61322 9.94975 3.5 8 3.5C6.05025 3.5 4.55224 4.61322 3.57273 5.65803C3.07842 6.1853 2.70103 6.71066 2.44717 7.10374C2.31993 7.30076 2.2229 7.46582 2.15699 7.58299C2.12401 7.64162 2.09877 7.68835 2.08138 7.72122C2.07268 7.73766 2.06594 7.75064 2.06117 7.75991L2.05549 7.77102L2.05377 7.77443L2.05319 7.7756C2.05319 7.7756 2.05279 7.77639 2.5 8L2.05279 7.77639C1.9824 7.91716 1.9824 8.08284 2.05279 8.22361L2.5 8C2.05279 8.22361 2.05279 8.22361 2.05279 8.22361L2.05319 8.2244L2.05377 8.22557L2.05549 8.22898L2.06117 8.24009C2.06594 8.24936 2.07268 8.26234 2.08138 8.27878C2.09877 8.31165 2.12401 8.35839 2.15699 8.41701C2.2229 8.53418 2.31993 8.69924 2.44717 8.89626C2.70103 9.28934 3.07842 9.8147 3.57273 10.342C4.55224 11.3868 6.05025 12.5 8 12.5C9.94975 12.5 11.4478 11.3868 12.4273 10.342C12.9216 9.8147 13.299 9.28934 13.5528 8.89626C13.6801 8.69924 13.7771 8.53418 13.843 8.41701C13.876 8.35839 13.9012 8.31165 13.9186 8.27878C13.9273 8.26234 13.9341 8.24936 13.9388 8.24009L13.9445 8.22898L13.9462 8.22557L13.9468 8.2244C13.9468 8.2244 13.9472 8.22361 13.5 8ZM13.5 8L13.9472 8.22361C14.0176 8.08284 14.0174 7.91681 13.947 7.77604L13.5 8Z" fill="#A8A8A8"/>
<path fill-rule="evenodd" clip-rule="evenodd" d="M8 7C7.44772 7 7 7.44772 7 8C7 8.55228 7.44772 9 8 9C8.55228 9 9 8.55228 9 8C9 7.44772 8.55228 7 8 7ZM6 8C6 6.89543 6.89543 6 8 6C9.10457 6 10 6.89543 10 8C10 9.10457 9.10457 10 8 10C6.89543 10 6 9.10457 6 8Z" fill="#A8A8A8"/>
</g>
<defs>
<clipPath id="clip0_1252_1483">
<rect width="12" height="12" fill="white" transform="translate(2 2)"/>
</clipPath>
</defs>
</svg>
