<svg width="80" height="80" viewBox="0 0 80 80" fill="none" xmlns="http://www.w3.org/2000/svg">
<line x1="14.375" y1="29.7646" x2="33.444" y2="29.7646" stroke="#CB9C88" stroke-width="3" stroke-linecap="round"/>
<path d="M46.8984 29.8848H65.2892" stroke="#CB9C88" stroke-width="3" stroke-linecap="round"/>
<path d="M28.3867 37.701C28.3867 38.5295 29.0583 39.201 29.8867 39.201C30.7151 39.201 31.3867 38.5295 31.3867 37.701H28.3867ZM28.3867 30.3447V37.701H31.3867V30.3447H28.3867Z" fill="#CB9C88"/>
<path d="M58.2695 36.7811C58.2695 37.6096 58.9411 38.2811 59.7695 38.2811C60.598 38.2811 61.2695 37.6096 61.2695 36.7811H58.2695ZM58.2695 29.4248V36.7811H61.2695V29.4248H58.2695Z" fill="#CB9C88"/>
<circle cx="40" cy="40" r="38.5" stroke="#CB9C88" stroke-width="3"/>
<path d="M54.7131 55.9152C44.1381 34.0228 25.7473 46.4365 24.3683 55.0021C23.7865 55.5253 32.2463 51.0062 39.9999 51.494C48.8345 52.0497 56.5519 60.2297 54.7131 55.9152Z" stroke="#CB9C88" stroke-width="3" stroke-linecap="round"/>
</svg>
