<svg width="80" height="80" viewBox="0 0 80 80" fill="none" xmlns="http://www.w3.org/2000/svg">
<path d="M40 1.5C61.263 1.5 78.5 18.737 78.5 40C78.5 61.263 61.263 78.5 40 78.5C18.737 78.5 1.5 61.263 1.5 40C1.5 18.737 18.737 1.5 40 1.5Z" stroke="#A8A8A8" stroke-width="3"/>
<path d="M26.7395 53.4906C38.2001 71.5197 54.6661 59.4896 55.7074 51.239C56.5965 44.1936 48.3034 50.5333 40.5372 50.3849C30.8828 49.9611 23.0744 46.4534 26.7395 53.4906Z" stroke="#A8A8A8" stroke-width="3" stroke-linecap="round"/>
<path d="M32.6466 28.9593C37.3662 17.8902 26.0239 23.7997 23.6998 26.7873C14.3745 19.4197 12.3691 22.9492 12.9567 27.4394C14.3147 33.2128 19.4101 39.1029 22.2942 41.2365C24.4442 43.0424 28.8905 38.3962 32.6466 28.9593Z" stroke="#A8A8A8" stroke-width="3" stroke-linecap="round"/>
<path d="M65.2876 29.4252C70.0072 18.3561 58.2082 22.8801 55.884 25.8677C46.5588 18.5002 44.5533 22.0296 45.1409 26.5198C46.499 32.2932 51.5944 38.1833 54.4785 40.3169C56.6284 42.1228 61.5315 38.8621 65.2876 29.4252Z" stroke="#A8A8A8" stroke-width="3" stroke-linecap="round"/>
</svg>
