<svg width="80" height="80" viewBox="0 0 80 80" fill="none" xmlns="http://www.w3.org/2000/svg">
<circle cx="40" cy="40" r="38.5" stroke="#CB9C88" stroke-width="3"/>
<path d="M20.2852 23.8525L32.7075 36.2748" stroke="#CB9C88" stroke-width="3" stroke-linecap="round"/>
<path d="M47.8164 23.9082L60.2387 36.3305" stroke="#CB9C88" stroke-width="3" stroke-linecap="round"/>
<path d="M32.6523 23.9082L20.23 36.3305" stroke="#CB9C88" stroke-width="3" stroke-linecap="round"/>
<path d="M60.2383 23.9082L47.816 36.3305" stroke="#CB9C88" stroke-width="3" stroke-linecap="round"/>
<path d="M11.9531 51.9981C13.1195 50.6082 16.3077 48.7318 19.7291 52.3456C23.1505 55.9594 26.8571 53.6197 28.2827 51.9981C29.4491 50.3765 32.7927 48.1063 36.8363 51.9981C40.8798 55.89 44.4826 53.6197 45.7786 51.9981C46.8154 50.2607 49.9777 47.8283 54.3322 51.9981C56.9859 54.5393 59.1006 54.5425 60.553 53.7378C61.4838 53.222 62.1426 52.3745 62.497 51.6506C63.145 50.1449 65.5296 48.0368 69.8842 51.6506" stroke="#CB9C88" stroke-width="3" stroke-linecap="round"/>
<circle cx="40" cy="40" r="38.5" stroke="#CB9C88" stroke-width="3"/>
</svg>
