<svg width="16" height="16" viewBox="0 0 16 16" fill="none" xmlns="http://www.w3.org/2000/svg">
<path fill-rule="evenodd" clip-rule="evenodd" d="M12.7971 4.65816C11.7131 3.261 9.5372 3.49531 8.77551 5.09123C8.46414 5.74362 7.53551 5.74362 7.22414 5.09123C6.46245 3.49531 4.28657 3.261 3.20256 4.65816L2.99633 4.92398C2.05759 6.1339 2.19313 7.85931 3.30928 8.90782L7.94436 13.262C7.96509 13.2815 7.98333 13.2986 7.99983 13.3139C8.01632 13.2986 8.03456 13.2815 8.0553 13.262L12.6904 8.90782C13.8065 7.85932 13.9421 6.1339 13.0033 4.92398L12.7971 4.65816ZM7.99982 4.41921C9.17962 2.37163 12.1033 2.13267 13.5872 4.04516L13.7934 4.31098C15.0483 5.92843 14.8671 8.23501 13.375 9.63666L8.72826 14.0018C8.65881 14.0671 8.58293 14.1384 8.51135 14.1936C8.42902 14.257 8.31394 14.3303 8.1603 14.3605C8.05433 14.3813 7.94532 14.3813 7.83935 14.3605C7.68572 14.3303 7.57063 14.257 7.4883 14.1936C7.41672 14.1384 7.34083 14.0671 7.27138 14.0018L2.6246 9.63666C1.13252 8.235 0.951322 5.92843 2.20624 4.31098L2.41248 4.04516C3.89631 2.13267 6.82002 2.37163 7.99982 4.41921Z" fill="#A8A8A8"/>
</svg>
