<svg width="24" height="24" viewBox="0 0 24 24" fill="none" xmlns="http://www.w3.org/2000/svg">
<path fill-rule="evenodd" clip-rule="evenodd" d="M10.7436 6.17604C10.1875 6.54337 9.52984 7.10524 8.58345 7.91643L7.58345 8.77357C6.50045 9.70186 6.14576 10.027 5.95595 10.4397C5.76615 10.8524 5.75011 11.3333 5.75011 12.7597V17.0001C5.75011 17.9641 5.7517 18.6116 5.81664 19.0947C5.87869 19.5561 5.98591 19.7536 6.11622 19.8839C6.24654 20.0143 6.44404 20.1215 6.9055 20.1835C7.38854 20.2485 8.0361 20.2501 9.00011 20.2501H15.0001C15.9641 20.2501 16.6117 20.2485 17.0947 20.1835C17.5562 20.1215 17.7537 20.0143 17.884 19.8839C18.0143 19.7536 18.1215 19.5561 18.1836 19.0947C18.2485 18.6116 18.2501 17.9641 18.2501 17.0001V12.7597C18.2501 11.3333 18.2341 10.8524 18.0443 10.4397C17.8545 10.027 17.4998 9.70186 16.4168 8.77357L15.4168 7.91643C14.4704 7.10524 13.8127 6.54337 13.2566 6.17604C12.718 5.82031 12.3523 5.70129 12.0001 5.70129C11.6479 5.70129 11.2823 5.82031 10.7436 6.17604ZM9.91698 4.92439C10.5875 4.48156 11.2425 4.20129 12.0001 4.20129C12.7577 4.20129 13.4127 4.48156 14.0832 4.92439C14.7272 5.34968 15.4556 5.97408 16.3551 6.74508L17.393 7.63469C17.4336 7.66954 17.4737 7.7039 17.5134 7.73782C18.4274 8.52042 19.0628 9.06454 19.407 9.8129C19.7512 10.5613 19.7508 11.3979 19.7502 12.6011C19.7501 12.6533 19.7501 12.7061 19.7501 12.7597L19.7501 17.0521C19.7501 17.9505 19.7502 18.6998 19.6702 19.2945C19.5858 19.9223 19.4001 20.4891 18.9447 20.9446C18.4892 21.4001 17.9224 21.5857 17.2946 21.6701C16.6998 21.7501 15.9506 21.7501 15.0521 21.7501H8.94811C8.04963 21.7501 7.30041 21.7501 6.70563 21.6701C6.07783 21.5857 5.51103 21.4001 5.05556 20.9446C4.60009 20.4891 4.41442 19.9223 4.33002 19.2945C4.25005 18.6998 4.25008 17.9505 4.25011 17.0521L4.25011 12.7597C4.25011 12.7061 4.25008 12.6533 4.25005 12.6011C4.24942 11.3979 4.24898 10.5613 4.59318 9.8129C4.93738 9.06454 5.57286 8.52042 6.48686 7.73782C6.52647 7.7039 6.56661 7.66954 6.60727 7.63469L7.64514 6.74508C8.5446 5.97409 9.27306 5.34968 9.91698 4.92439Z" fill="#363636"/>
<path fill-rule="evenodd" clip-rule="evenodd" d="M8.75 16C8.75 15.0335 9.5335 14.25 10.5 14.25H13.5C14.4665 14.25 15.25 15.0335 15.25 16V21C15.25 21.4142 14.9142 21.75 14.5 21.75C14.0858 21.75 13.75 21.4142 13.75 21V16C13.75 15.8619 13.6381 15.75 13.5 15.75H10.5C10.3619 15.75 10.25 15.8619 10.25 16V21C10.25 21.4142 9.91421 21.75 9.5 21.75C9.08579 21.75 8.75 21.4142 8.75 21V16Z" fill="#363636"/>
</svg>
